<svg xmlns="http://www.w3.org/2000/svg" version="1.1" xmlns:xlink="http://www.w3.org/1999/xlink" xmlns:svgjs="http://svgjs.dev/svgjs" width="1000" height="1000" viewBox="0 0 1000 1000"><rect width="1000" height="1000" fill="#000000"></rect><g transform="matrix(0.7,0,0,0.7,149.75096423894644,259.394979757085)"><svg viewBox="0 0 359 247" data-background-color="#333333" preserveAspectRatio="xMidYMid meet" height="688" width="1000" xmlns="http://www.w3.org/2000/svg" xmlns:xlink="http://www.w3.org/1999/xlink"><g id="tight-bounds" transform="matrix(1,0,0,1,0.12771976888319614,-0.09999999999999432)"><svg viewBox="0 0 358.7445604622336 247.2" height="247.2" width="358.7445604622336"><g><svg viewBox="0 0 397.4975999999999 273.9035446095477" height="247.2" width="358.7445604622336"><g><rect width="397.4975999999999" height="6.298217187960337" x="0" y="152.61643379877137" fill="#ffffff" opacity="1" stroke-width="0" stroke="transparent" fill-opacity="1" class="rect-o-0" data-fill-palette-color="primary" rx="1%" id="o-0" data-palette-color="#7fc37e"></rect></g><g transform="matrix(1,0,0,1,0.9887999999999693,175.40213053636612)"><svg viewBox="0 0 395.52 98.50141407318159" height="98.50141407318159" width="395.52"><g id="textblocktransform"><svg viewBox="0 0 395.52 98.50141407318159" height="98.50141407318159" width="395.52" id="textblock"><g><svg viewBox="0 0 395.52 69.83971072719967" height="69.83971072719967" width="395.52"><g transform="matrix(1,0,0,1,0,0)"><svg width="395.52" viewBox="2.1500000953674316 -33.75 248.8800048828125 43.95000076293945" height="69.83971072719967" data-palette-color="#7fc37e"><g class="undefined-text-0" data-fill-palette-color="primary" id="text-0"><path d="M26.05-9.05Q26.05-6.7 24.98-5.03 23.9-3.35 21.45-1.95L21.45-1.95Q19.8-0.95 17.6-0.45 15.4 0.05 13.15 0.05L13.15 0.05Q10.85 0.05 7.45-1.45L7.45-1.45Q5-2.65 3.58-4.3 2.15-5.95 2.15-7.9L2.15-7.9Q2.15-9.25 2.75-9.88 3.35-10.5 4.7-10.5L4.7-10.5Q5.4-10.5 6.15-9.93 6.9-9.35 7.05-8.8L7.05-8.8Q7.75-6.75 9.5-5.68 11.25-4.6 13.85-4.6L13.85-4.6Q16.85-4.6 18.88-5.7 20.9-6.8 20.9-8.65L20.9-8.65Q20.9-10.45 18.7-11.85 16.5-13.25 14.2-13.8L14.2-13.8Q10.9-14.7 8.35-15.95L8.35-15.95Q5.7-17.25 4.4-19.15 3.1-21.05 3.1-23.15L3.1-23.15Q3.1-25.1 4.45-27.13 5.8-29.15 7.65-30.05L7.65-30.05Q8.65-30.55 11.08-31.13 13.5-31.7 14.6-31.7L14.6-31.7Q16.05-31.7 17.8-31.35 19.55-31 20.65-30.35L20.65-30.35Q22.85-29.1 23.9-28.1 24.95-27.1 24.95-25.6L24.95-25.6Q24.95-24.7 24.28-24 23.6-23.3 21.95-23.3L21.95-23.3Q21.55-23.3 21.15-23.65 20.75-24 20.15-24.7L20.15-24.7Q19.35-25.75 18.6-26.1L18.6-26.1Q17.85-26.35 16.43-26.65 15-26.95 13.9-26.95L13.9-26.95Q12.7-26.95 11.4-26.45 10.1-25.95 9.22-25.03 8.35-24.1 8.35-22.9L8.35-22.9Q8.35-21.9 9.28-21.18 10.2-20.45 11.5-20L11.5-20Q13-19.4 14.75-18.95L14.75-18.95Q17.05-18.25 18.53-17.68 20-17.1 21.4-16.25L21.4-16.25Q23.85-14.8 24.95-13.28 26.05-11.75 26.05-9.05L26.05-9.05ZM29.8-16.85Q29.4-16.85 29.07-17.18 28.75-17.5 28.75-17.95L28.75-17.95Q28.75-19.1 29.75-20.1L29.75-20.1Q30.05-20.25 30.95-20.6 31.85-20.95 32.55-20.95L32.55-20.95Q34.45-20.95 35.65-19.93 36.85-18.9 36.85-17L36.85-17Q36.85-16.45 36.65-14.65L36.65-14.65Q36.45-12.55 36.45-11.4L36.45-11.4Q36.45-7.9 37.4-5.75L37.4-5.75Q37.75-5.05 38.5-4.65 39.25-4.25 39.85-4.25L39.85-4.25Q41.3-4.25 42.2-4.75 43.1-5.25 44.15-6.35L44.15-6.35Q45.2-7.45 45.52-8.85 45.85-10.25 46-12.7L46-12.7Q46.1-14.3 46.2-15.05L46.2-15.05Q46.45-17.45 46.45-19.15L46.45-19.15Q46.45-20.25 47.05-20.98 47.65-21.7 48.7-21.7L48.7-21.7Q49.3-21.7 50.07-21.33 50.85-20.95 51.1-20.45L51.1-20.45Q51.4-19.95 51.4-18.8L51.4-18.8Q51.4-18.2 51.25-17.65L51.25-17.65Q50.9-16.4 50.9-14.65L50.9-14.65 50.95-12.05Q50.95-8.5 51.45-6.8L51.45-6.8Q51.7-6 52.15-5.18 52.6-4.35 53-3.8L53-3.8Q54-2.7 54.3-2.27 54.6-1.85 54.6-1.45L54.6-1.45Q54.6-0.85 54.02-0.33 53.45 0.2 52.8 0.2L52.8 0.2Q50.95 0.2 49.6-1.05 48.25-2.3 47.6-4.3L47.6-4.3Q45.9-2.35 44.45-1.15L44.45-1.15Q43.45-0.45 42-0.13 40.55 0.2 39.1 0.2L39.1 0.2Q37.15 0.2 35.15-1.4 33.15-3 32.45-5.1L32.45-5.1Q32.4-5.2 32.17-5.9 31.95-6.6 31.95-8L31.95-8Q31.95-9.85 32.15-12.65L32.15-12.65Q32.3-14.45 32.3-15.95L32.3-15.95Q32.3-16.4 31.97-16.7 31.65-17 31.25-17L31.25-17Q30.95-17 30.57-16.93 30.2-16.85 29.8-16.85L29.8-16.85ZM65.8-2Q65.8-1.15 65.15-0.5 64.5 0.15 63.55 0.15L63.55 0.15Q62.05 0.15 61.35-0.43 60.65-1 60.65-2.55L60.65-2.55Q60.65-4.4 60.55-7.4L60.55-7.4Q60.45-9.9 60.45-11.6L60.45-11.6Q60.45-12.4 60.55-13.7L60.55-13.7Q60.65-14.9 60.65-15.5L60.65-15.5Q60.5-16.45 59.9-17.07 59.3-17.7 58.35-17.7L58.35-17.7Q57.9-17.7 57.6-18.13 57.3-18.55 57.3-19L57.3-19Q57.3-20.15 58.22-20.75 59.15-21.35 60.45-21.35L60.45-21.35Q63.15-21.35 64.2-18.15L64.2-18.15Q65.5-19.65 67.17-20.58 68.84-21.5 70.4-21.5L70.4-21.5Q72.25-21.5 73.77-20.5 75.3-19.5 75.3-17.8L75.3-17.8Q75.3-16.85 74.47-15.85 73.65-14.85 72.8-14.85L72.8-14.85Q72.34-14.85 72.02-15.08 71.7-15.3 71.25-15.75L71.25-15.75Q70.75-16.25 70.4-16.48 70.05-16.7 69.59-16.7L69.59-16.7Q68.8-16.7 68.09-16.45 67.4-16.2 67.15-15.85L67.15-15.85Q66.34-14.6 65.97-13.6 65.59-12.6 65.59-11.45L65.59-11.45Q65.59-10.6 65.55-10.1L65.55-10.1 65.5-7.25Q65.5-6.6 65.55-5.8 65.59-5 65.65-4.6L65.65-4.6Q65.8-3.25 65.8-2L65.8-2ZM89.84-12.85Q89.99-13.25 90.92-15.75 91.84-18.25 92.64-19.55L92.64-19.55Q93.94-21.6 94.94-21.6L94.94-21.6Q96.34-21.6 97.09-21.08 97.84-20.55 97.84-19.6L97.84-19.6Q97.84-19.15 97.47-18.35 97.09-17.55 97.04-17.4L97.04-17.4Q95.04-13 93.44-7.95L93.44-7.95 92.39-4.05Q91.79-2.15 90.34-0.98 88.89 0.2 86.94 0.2L86.94 0.2Q85.19 0.2 83.69-1.4L83.69-1.4Q82.79-2.8 81.82-4.95 80.84-7.1 80.14-9.15L80.14-9.15 78.39-14.4Q77.84-15.95 77.52-17.05 77.19-18.15 77.19-19.05L77.19-19.05Q77.14-20.1 77.79-20.75 78.44-21.4 79.59-21.4L79.59-21.4Q80.89-21.4 81.44-20.88 81.99-20.35 82.44-19.25L82.44-19.25Q82.64-18.1 83.54-14.55L83.54-14.55 83.89-13.15Q84.34-11.45 85.04-9.7 85.74-7.95 86.44-6.35L86.44-6.35Q86.34-6.6 87.14-4.7L87.14-4.7Q87.64-6.15 88.29-8.25L88.29-8.25 89.84-12.85ZM100.99-10.6Q100.99-12.5 101.69-14.43 102.39-16.35 103.54-17.95L103.54-17.95Q104.69-19.55 107.19-20.58 109.69-21.6 111.64-21.6L111.64-21.6Q113.64-21.6 115.72-21.05 117.79-20.5 118.59-19.35L118.59-19.35Q120.44-16.75 120.44-14.25L120.44-14.25Q120.44-12.9 119.87-11.95 119.29-11 118.24-9.9L118.24-9.9Q117.39-9 115.57-8.7 113.74-8.4 111.94-8.4L111.94-8.4Q110.79-8.4 109.14-8.63 107.49-8.85 105.94-9.2L105.94-9.2Q106.04-8.2 106.44-7.25 106.84-6.3 107.39-5.8L107.39-5.8Q108.39-4.85 109.47-4.6 110.54-4.35 112.24-4.35L112.24-4.35Q114.04-4.35 115.59-4.95L115.59-4.95Q116.84-5.4 117.64-5.4L117.64-5.4Q118.59-5.4 119.09-4.83 119.59-4.25 119.59-3.35L119.59-3.35Q119.59-2.1 118.14-1.3 116.69-0.5 114.82-0.13 112.94 0.25 111.79 0.25L111.79 0.25Q109.44 0.25 107.24-0.6 105.04-1.45 103.59-3L103.59-3Q102.39-4.4 101.69-6.38 100.99-8.35 100.99-10.6L100.99-10.6ZM111.89-17.35Q110.79-17.35 109.69-16.93 108.59-16.5 107.89-15.75L107.89-15.75Q106.99-14.8 106.67-14.23 106.34-13.65 106.24-12.65L106.24-12.65Q107.49-12.25 111.44-12.25L111.44-12.25Q113.59-12.25 114.77-12.9 115.94-13.55 115.94-14.6L115.94-14.6Q115.94-15.65 114.64-16.5 113.34-17.35 111.89-17.35L111.89-17.35ZM130.69 10.2Q128.79 10.2 127.51 9.58 126.24 8.95 125.61 8.08 124.99 7.2 124.99 6.55L124.99 6.55Q124.99 5.7 125.59 5.23 126.19 4.75 127.04 4.75L127.04 4.75Q127.54 4.75 127.99 5.05 128.44 5.35 128.49 5.4L128.49 5.4Q128.84 5.65 129.19 5.83 129.54 6 129.94 6L129.94 6Q131.04 6 131.74 4.55 132.44 3.1 133.14-0.15L133.14-0.15Q130.89-3.45 129.39-6.75L129.39-6.75 128.24-9.4Q127.99-10 126.86-12.53 125.74-15.05 124.64-17L124.64-17Q123.94-18.4 123.94-18.9L123.94-18.9Q123.94-20.15 124.81-20.75 125.69-21.35 126.84-21.35L126.84-21.35Q127.64-21.35 128.06-21.03 128.49-20.7 129.04-19.85L129.04-19.85Q130.49-17.45 132.19-12.65L132.19-12.65Q133.19-9.9 133.79-8.47 134.39-7.05 135.24-5.6L135.24-5.6Q136.09-7.55 137.39-12.25L137.39-12.25Q138.19-14.95 138.71-16.57 139.24-18.2 139.89-19.55L139.89-19.55Q140.34-20.45 141.01-21 141.69-21.55 142.54-21.55L142.54-21.55Q143.39-21.55 144.36-20.93 145.34-20.3 145.34-19.45L145.34-19.45Q145.34-18.95 144.99-18.25L144.99-18.25Q143.04-13.75 141.56-9.78 140.09-5.8 138.74-1.05L138.74-1.05Q137.94 1.6 137.06 4 136.19 6.4 135.84 6.95L135.84 6.95Q134.84 8.35 133.59 9.28 132.34 10.2 130.69 10.2L130.69 10.2ZM182.24-28.9Q182.54-29.95 183.14-30.63 183.74-31.3 184.44-31.3L184.44-31.3Q186.14-31.3 186.89-30.65 187.64-30 187.64-28.4L187.64-28.4Q187.64-27.95 186.94-25.85L186.94-25.85Q185.39-21.1 183.54-14.1L183.54-14.1Q183.09-12.5 182.81-11.3 182.54-10.1 182.34-9.3L182.34-9.3Q181.14-4.15 180.24-1.55L180.24-1.55Q179.94-0.8 179.19-0.38 178.44 0.05 177.59 0.05L177.59 0.05Q176.74 0.05 175.91-0.33 175.09-0.7 174.74-1.2L174.74-1.2Q173.19-4.25 170.91-9.53 168.64-14.8 167.39-18.75L167.39-18.75Q164.29-10.9 161.84-3.6L161.84-3.6Q161.69-3.15 161.51-2.63 161.34-2.1 161.14-1.55L161.14-1.55Q160.79-0.8 160.14-0.38 159.49 0.05 158.69 0.05L158.69 0.05Q157.79 0.05 156.94-0.33 156.09-0.7 155.79-1.2L155.79-1.2Q155.14-2.3 154.41-4.6 153.69-6.9 152.49-11.05L152.49-11.05 151.24-15.3Q149.94-19.45 148.99-23.8 148.04-28.15 148.04-29L148.04-29Q148.04-30.05 149.09-30.68 150.14-31.3 151.19-31.3L151.19-31.3Q151.79-31.3 152.44-30.93 153.09-30.55 153.29-29.65L153.29-29.65Q155.04-20.3 158.44-7.95L158.44-7.95Q159.74-11.05 161.31-15.5 162.89-19.95 164.34-24.15L164.34-24.15 164.84-25.65Q165.04-26.4 165.86-26.83 166.69-27.25 167.54-27.25L167.54-27.25Q168.64-27.25 169.34-26.7 170.04-26.15 170.24-25.5L170.24-25.5Q170.29-25.3 172.24-19.55 174.19-13.8 176.89-7.95L176.89-7.95Q177.89-10.9 179.29-17.4L179.29-17.4 180.04-20.7Q181.39-26 182.24-28.9L182.24-28.9ZM197.48-31.7Q197.48-30.4 197.43-28.68 197.38-26.95 197.33-26.05L197.33-26.05Q197.18-23.5 197.18-20.95L197.18-20.95Q197.18-19.05 197.33-17L197.33-17Q198.88-19.25 200.68-20.3 202.48-21.35 205.03-21.35L205.03-21.35Q206.88-21.35 208.48-19.7 210.08-18.05 210.53-15.85L210.53-15.85Q210.68-13.9 210.68-11.1L210.68-11.1Q210.68-9.3 210.88-6.4L210.88-6.4Q210.98-5.3 211.46-4.35 211.93-3.4 212.83-3.4L212.83-3.4Q213.28-3.4 213.56-3.45 213.83-3.5 214.08-3.5L214.08-3.5Q214.78-3.5 215.06-3.15 215.33-2.8 215.33-2.15L215.33-2.15Q215.33-0.95 214.13-0.35 212.93 0.25 211.93 0.25L211.93 0.25Q208.33 0.25 206.98-2.75L206.98-2.75Q206.23-4.45 206.03-7.18 205.83-9.9 205.83-13.55L205.83-13.55Q205.83-17.15 203.38-17.15L203.38-17.15Q202.03-17.15 200.66-15.73 199.28-14.3 198.38-11.98 197.48-9.65 197.48-7.15L197.48-7.15 197.53-1.95Q197.53-0.85 196.68-0.33 195.83 0.2 195.08 0.2L195.08 0.2Q193.98 0.2 193.08-0.48 192.18-1.15 192.18-2L192.18-2Q192.53-5.75 192.53-14.55L192.53-14.55Q192.53-16.15 192.28-26.4L192.28-26.4 192.13-31Q192.13-32.1 193.13-32.93 194.13-33.75 195.38-33.75L195.38-33.75Q196.48-33.75 196.98-33.25 197.48-32.75 197.48-31.7L197.48-31.7ZM220.88-32.1Q222.63-31.95 223.93-31.18 225.23-30.4 225.23-28.85L225.23-28.85Q225.23-27.7 224.16-27.03 223.08-26.35 221.58-26.35L221.58-26.35Q220.13-26.35 219.58-27.1 219.03-27.85 219.03-28.65L219.03-28.65Q219.03-30.15 219.36-31.15 219.68-32.15 220.88-32.1L220.88-32.1ZM224.88-18.95L224.88-9.95 224.88-8.5Q224.88-6.55 225.01-4.83 225.13-3.1 225.33-1.35L225.33-1.35Q225.28-0.85 224.58-0.33 223.88 0.2 223.33 0.2L223.33 0.2Q222.38 0.2 221.41-0.18 220.43-0.55 220.23-1.1L220.23-1.1Q219.93-2.7 219.93-3.95L219.93-3.95Q219.93-8.05 219.68-13.15L219.68-13.15Q219.48-17.65 219.48-19.45L219.48-19.45Q219.48-20.35 220.38-21 221.28-21.65 222.28-21.65L222.28-21.65Q223.73-21.65 224.31-21 224.88-20.35 224.88-18.95L224.88-18.95ZM248.43-17.1Q247.38-15.3 245.58-13.4 243.78-11.5 240.98-8.9L240.98-8.9Q238.33-6.4 238.03-6.05L238.03-6.05 236.33-4.5Q237.33-4.3 240.08-4.3L240.08-4.3Q241.18-4.3 243.28-4.7L243.28-4.7Q245.28-5.1 246.23-5.1L246.23-5.1Q247.03-5.1 248.05-4.85 249.08-4.6 249.98-4.1L249.98-4.1Q250.43-3.9 250.73-3.33 251.03-2.75 251.03-2.25L251.03-2.25Q251.03-1.6 250.58-0.8 250.13 0 249.53 0L249.53 0Q248.98 0 248.08-0.2L248.08-0.2Q246.73-0.45 246.18-0.45L246.18-0.45Q244.43-0.45 241.53-0.2L241.53-0.2Q237.53 0.1 235.63 0.1L235.63 0.1Q233.23 0.1 231.85-0.5 230.48-1.1 230.48-2.75L230.48-2.75Q230.48-4 231.73-5.63 232.98-7.25 234.78-9.05L234.78-9.05 235.48-9.8Q236.28-10.6 238.18-12.2L238.18-12.2Q240.08-13.85 241.08-14.83 242.08-15.8 242.73-16.9L242.73-16.9 234.73-16.85Q232.78-16.85 231.85-17.3 230.93-17.75 230.93-19L230.93-19Q230.93-19.7 231.43-20.33 231.93-20.95 232.73-21.1L232.73-21.1Q234.53-21.35 240.08-21.35L240.08-21.35Q245.63-21.35 247.73-20.8L247.73-20.8Q248.28-20.6 248.6-20.08 248.93-19.55 248.93-19L248.93-19Q248.93-18.1 248.43-17.1L248.43-17.1Z" fill="#ffffff" data-fill-palette-color="primary"></path></g></svg></g></svg></g><g transform="matrix(1,0,0,1,75.54432,86.32719027683406)"><svg viewBox="0 0 244.43135999999998 12.174223796347535" height="12.174223796347535" width="244.43135999999998"><g transform="matrix(1,0,0,1,0,0)"><svg width="244.43135999999998" viewBox="3.25 -33.75 903.4000244140625 45" height="12.174223796347535" data-palette-color="#7fc37e"><path d="M8.85-29Q8.85-27.55 8.75-25.15L8.75-25.15 8.7-21.9Q8.7-17.15 9.4-13.95L9.4-13.95Q10.4-9.45 12.4-7L12.4-7Q14.25-4.85 16.95-4.85L16.95-4.85Q19.05-4.85 20.7-6.13 22.35-7.4 23.25-9.3L23.25-9.3Q24.75-12.4 24.75-16.95L24.75-16.95Q24.75-19.7 24.4-23.45L24.4-23.45Q24.1-27.65 24.1-29.75L24.1-29.75Q24.1-30.85 25.4-31.18 26.7-31.5 28.1-31.5L28.1-31.5Q28.6-31.5 29.25-30.85 29.9-30.2 29.9-29.45L29.9-29.45Q29.9-27.95 29.75-26.6L29.75-26.6Q29.65-25.1 29.65-24.5L29.65-24.5Q29.65-22.6 29.85-19.2L29.85-19.2Q29.9-18.35 29.95-17.15 30-15.95 30-14.4L30-14.4Q30-11 28.38-7.63 26.75-4.25 23.85-2.08 20.95 0.1 17.3 0.1L17.3 0.1Q11.7 0.1 8.55-3.53 5.4-7.15 4.25-12.9L4.25-12.9Q3.6-16.2 3.43-19.8 3.25-23.4 3.25-29.45L3.25-29.45Q3.25-30.25 4.03-30.95 4.8-31.65 5.7-31.65L5.7-31.65Q8.85-31.65 8.85-29L8.85-29ZM58.6-3.85Q58.85-3.75 59.4-3.6 59.95-3.45 60.2-3.3 60.45-3.15 60.45-2.85L60.45-2.85Q60.5-1.65 59.57-0.88 58.65-0.1 57.4-0.1L57.4-0.1Q55.45-0.1 54.35-1.15 53.25-2.2 52.75-4.35L52.75-4.35Q52.55-5.2 52.55-6.7L52.55-6.7Q52.55-7.55 52.65-9.45L52.65-9.45Q52.75-11.45 52.75-12.65L52.75-12.65Q52.75-14.4 51.77-15.73 50.8-17.05 49.05-17.05L49.05-17.05Q48-17.05 46.85-16.43 45.7-15.8 45.25-14.9L45.25-14.9Q44.5-13.45 44.2-11.75L44.2-11.75Q43.65-8.75 43.65-5.5L43.65-5.5Q43.65-3.95 43.7-3.1L43.7-3.1Q43.7-2.9 43.72-2.33 43.75-1.75 43.62-1.28 43.5-0.8 43.2-0.4L43.2-0.4Q42.95-0.15 42.42 0.03 41.9 0.2 41.45 0.2L41.45 0.2Q40.75 0.2 39.7-0.4 38.65-1 38.5-1.75L38.5-1.75 38.45-2.6Q38.45-3.05 38.55-3.65L38.55-3.65Q39.15-7.15 39.15-9.75L39.15-9.75Q39.15-10.9 39.1-11.55L39.1-11.55 39.05-13.9Q39.05-15.1 38.45-16.23 37.85-17.35 37.05-17.35L37.05-17.35Q36.8-17.35 36.35-17.18 35.9-17 35.6-17L35.6-17Q35.1-17 34.52-17.5 33.95-18 33.95-18.55L33.95-18.55Q33.95-19.6 34.65-20.25L34.65-20.25Q35.4-20.85 36.12-21.2 36.85-21.55 37.8-21.55L37.8-21.55Q38.6-21.55 39.1-21.4 39.6-21.25 40.45-20.75L40.45-20.75Q40.9-20.5 41.5-19.65 42.1-18.8 42.5-17.25L42.5-17.25Q43.8-19.65 45.72-20.63 47.65-21.6 50.65-21.6L50.65-21.6Q51.8-21.6 53.12-20.85 54.45-20.1 55.4-19.1L55.4-19.1Q56.3-18 56.9-16.38 57.5-14.75 57.5-13.45L57.5-13.45Q57.5-12.7 57.4-11L57.4-11Q57.25-9.65 57.25-8.15L57.25-8.15Q57.25-4.65 58.6-3.85L58.6-3.85ZM69.65-7.75Q69.65-5.85 70.22-4.83 70.8-3.8 71.7-3.8L71.7-3.8Q72.2-3.8 72.65-3.88 73.09-3.95 73.55-3.95L73.55-3.95Q74.05-3.95 74.42-3.45 74.8-2.95 74.8-2.35L74.8-2.35Q74.8-1.15 73.67-0.48 72.55 0.2 70.65 0.2L70.65 0.2Q69.3 0.2 67.92-0.63 66.55-1.45 65.65-3.23 64.75-5 64.75-7.65L64.75-7.65Q64.75-13.35 64.95-17.3L64.95-17.3Q65.2-22 65.2-29.15L65.2-29.15Q65.2-31.4 65.45-32.3L65.45-32.3Q65.75-33 66.42-33.38 67.09-33.75 67.84-33.75L67.84-33.75Q68.59-33.75 69.17-33.5 69.75-33.25 69.95-32.7L69.95-32.7Q70.15-32.1 70.22-31.53 70.3-30.95 70.3-29.9L70.3-29.9Q70.3-27.85 70.15-25.95L70.15-25.95Q70.05-23.65 70.05-22.6L70.05-22.6Q69.65-13.8 69.65-7.75L69.65-7.75ZM97.99-16.05Q98.39-15.35 98.64-14.03 98.89-12.7 98.89-11.65L98.89-11.65Q98.89-9.7 98.04-6.1L98.04-6.1Q94.59 0.2 87.84 0.2L87.84 0.2Q85.34 0.2 82.74-1.45 80.14-3.1 79.14-5.25L79.14-5.25Q77.79-9.55 77.79-10.7L77.79-10.7Q77.79-12.7 78.67-14.95 79.54-17.2 80.89-18.85L80.89-18.85Q81.74-20 83.94-20.83 86.14-21.65 87.94-21.65L87.94-21.65Q91.44-21.65 93.89-20.33 96.34-19 97.99-16.05L97.99-16.05ZM93.64-8Q93.89-8.65 93.89-11.35L93.89-11.35Q93.89-12.8 93.37-14.2 92.84-15.6 91.84-16.6L91.84-16.6Q91.74-16.7 91.29-16.93 90.84-17.15 90.07-17.38 89.29-17.6 88.29-17.6L88.29-17.6Q85.49-17.6 84.19-15.35 82.89-13.1 82.89-10.25L82.89-10.25Q82.89-9.75 83.17-8.35 83.44-6.95 83.64-6.6L83.64-6.6Q83.79-6.25 84.42-5.63 85.04-5 85.97-4.53 86.89-4.05 87.89-4.05L87.89-4.05Q90.14-4.05 91.49-5.13 92.84-6.2 93.64-8L93.64-8ZM121.54-16.7Q121.54-14.5 119.29-14.5L119.29-14.5Q118.54-14.5 118.04-14.85 117.54-15.2 116.94-15.9L116.94-15.9Q115.44-17.55 114.34-17.55L114.34-17.55Q112.89-17.55 111.52-16.7 110.14-15.85 109.29-14.3 108.44-12.75 108.44-10.85L108.44-10.85Q108.44-8.75 109.27-7.35 110.09-5.95 111.84-4.95L111.84-4.95Q112.49-4.6 113.37-4.4 114.24-4.2 114.89-4.2L114.89-4.2Q116.34-4.2 118.54-5.35L118.54-5.35Q119.34-5.75 119.89-5.95 120.44-6.15 121.04-6.15L121.04-6.15Q121.59-6.15 122.29-5.65 122.99-5.15 122.99-4.4L122.99-4.4Q122.99-2.9 121.59-1.88 120.19-0.85 118.17-0.33 116.14 0.2 114.29 0.2L114.29 0.2Q111.34 0.2 108.82-1.15 106.29-2.5 104.79-4.88 103.29-7.25 103.29-10.25L103.29-10.25Q103.29-13.45 104.74-16.1 106.19-18.75 108.64-20.25 111.09-21.75 113.99-21.75L113.99-21.75Q115.64-21.75 117.39-21.15 119.14-20.55 120.34-19.4 121.54-18.25 121.54-16.7L121.54-16.7ZM131.09 0.2Q130.09 0.2 129.39-0.15 128.69-0.5 128.54-0.9L128.54-0.9Q127.99-2.9 127.99-6.15L127.99-6.15Q127.99-12.15 128.19-15.9L128.19-15.9Q128.39-20.35 128.39-24.45L128.39-24.45Q128.39-25.65 128.09-27.95L128.09-27.95Q128.04-28.35 127.94-29.4 127.84-30.45 127.84-31.35L127.84-31.35Q127.84-32.45 128.61-33.1 129.39-33.75 130.64-33.75L130.64-33.75Q131.64-33.75 132.26-33.13 132.89-32.5 132.89-31.45L132.89-31.45Q132.89-29.85 132.99-26.95L132.99-26.95Q133.09-24.25 133.09-22.9L133.09-22.9Q133.09-21.4 132.99-18.9L132.99-18.9Q132.89-17.4 132.89-16.7L132.89-16.7Q132.89-14.5 132.94-13.05L132.94-13.05Q134.79-14.9 137.79-17.4 140.79-19.9 142.44-20.9L142.44-20.9Q144.19-21.95 144.74-21.95L144.74-21.95Q145.79-21.95 146.54-21.5 147.29-21.05 147.29-20.2L147.29-20.2Q147.29-19.35 147.04-18.85 146.79-18.35 146.14-17.85L146.14-17.85 139.69-13.15Q140.79-12.6 141.56-11.75 142.34-10.9 143.14-9.65L143.14-9.65Q144.84-6.85 145.86-5.55 146.89-4.25 147.74-4.25L147.74-4.25 148.99-4.3Q149.34-4.3 149.61-3.9 149.89-3.5 149.89-2.75L149.89-2.75Q149.89-1.6 148.76-0.9 147.64-0.2 146.24-0.2L146.24-0.2Q144.29-0.2 142.79-1.73 141.29-3.25 139.94-5.85L139.94-5.85Q137.99-9.55 136.09-10.25L136.09-10.25 132.89-7.65 133.09-2.2Q133.09-0.9 132.41-0.35 131.74 0.2 131.09 0.2L131.09 0.2ZM155.64-32.1Q157.39-31.95 158.69-31.18 159.99-30.4 159.99-28.85L159.99-28.85Q159.99-27.7 158.91-27.03 157.84-26.35 156.34-26.35L156.34-26.35Q154.89-26.35 154.34-27.1 153.79-27.85 153.79-28.65L153.79-28.65Q153.79-30.15 154.11-31.15 154.44-32.15 155.64-32.1L155.64-32.1ZM159.64-18.95L159.64-9.95 159.64-8.5Q159.64-6.55 159.76-4.83 159.89-3.1 160.09-1.35L160.09-1.35Q160.04-0.85 159.34-0.33 158.64 0.2 158.09 0.2L158.09 0.2Q157.14 0.2 156.16-0.18 155.19-0.55 154.99-1.1L154.99-1.1Q154.69-2.7 154.69-3.95L154.69-3.95Q154.69-8.05 154.44-13.15L154.44-13.15Q154.24-17.65 154.24-19.45L154.24-19.45Q154.24-20.35 155.14-21 156.04-21.65 157.04-21.65L157.04-21.65Q158.49-21.65 159.06-21 159.64-20.35 159.64-18.95L159.64-18.95ZM188.68-3.85Q188.93-3.75 189.48-3.6 190.03-3.45 190.28-3.3 190.53-3.15 190.53-2.85L190.53-2.85Q190.58-1.65 189.66-0.88 188.73-0.1 187.48-0.1L187.48-0.1Q185.53-0.1 184.43-1.15 183.33-2.2 182.83-4.35L182.83-4.35Q182.63-5.2 182.63-6.7L182.63-6.7Q182.63-7.55 182.73-9.45L182.73-9.45Q182.83-11.45 182.83-12.65L182.83-12.65Q182.83-14.4 181.86-15.73 180.88-17.05 179.13-17.05L179.13-17.05Q178.08-17.05 176.93-16.43 175.78-15.8 175.33-14.9L175.33-14.9Q174.58-13.45 174.28-11.75L174.28-11.75Q173.73-8.75 173.73-5.5L173.73-5.5Q173.73-3.95 173.78-3.1L173.78-3.1Q173.78-2.9 173.81-2.33 173.83-1.75 173.71-1.28 173.58-0.8 173.28-0.4L173.28-0.4Q173.03-0.15 172.51 0.03 171.98 0.2 171.53 0.2L171.53 0.2Q170.83 0.2 169.78-0.4 168.73-1 168.58-1.75L168.58-1.75 168.53-2.6Q168.53-3.05 168.63-3.65L168.63-3.65Q169.23-7.15 169.23-9.75L169.23-9.75Q169.23-10.9 169.18-11.55L169.18-11.55 169.13-13.9Q169.13-15.1 168.53-16.23 167.93-17.35 167.13-17.35L167.13-17.35Q166.88-17.35 166.43-17.18 165.98-17 165.68-17L165.68-17Q165.18-17 164.61-17.5 164.03-18 164.03-18.55L164.03-18.55Q164.03-19.6 164.73-20.25L164.73-20.25Q165.48-20.85 166.21-21.2 166.93-21.55 167.88-21.55L167.88-21.55Q168.68-21.55 169.18-21.4 169.68-21.25 170.53-20.75L170.53-20.75Q170.98-20.5 171.58-19.65 172.18-18.8 172.58-17.25L172.58-17.25Q173.88-19.65 175.81-20.63 177.73-21.6 180.73-21.6L180.73-21.6Q181.88-21.6 183.21-20.85 184.53-20.1 185.48-19.1L185.48-19.1Q186.38-18 186.98-16.38 187.58-14.75 187.58-13.45L187.58-13.45Q187.58-12.7 187.48-11L187.48-11Q187.33-9.65 187.33-8.15L187.33-8.15Q187.33-4.65 188.68-3.85L188.68-3.85ZM212.18-0.1Q213.53 0.85 214.01 2 214.48 3.15 214.48 5.2L214.48 5.2Q214.48 6.2 213.91 7.2 213.33 8.2 212.73 8.65L212.73 8.65Q207.98 11.25 203.23 11.25L203.23 11.25Q200.88 11.25 199.18 10.65 197.48 10.05 195.98 9.05L195.98 9.05Q194.98 8.3 194.36 6.98 193.73 5.65 193.73 4.35L193.73 4.35Q193.73 2.55 194.86 1.2 195.98-0.15 197.88-0.75L197.88-0.75Q197.53-1.5 197.53-2.5L197.53-2.5Q197.53-3.45 198.93-5.35L198.93-5.35Q196.53-6.15 195.16-8.2 193.78-10.25 193.78-13L193.78-13Q193.78-14.7 194.58-16.03 195.38-17.35 196.98-19.1L196.98-19.1Q198.08-20.3 199.78-20.85 201.48-21.4 204.03-21.4L204.03-21.4Q205.83-21.4 208.48-20.6L208.48-20.6Q211.63-22.8 214.03-22.8L214.03-22.8Q214.63-22.8 215.41-22.5 216.18-22.2 216.58-21.9L216.58-21.9Q216.88-21.35 216.88-20.05L216.88-20.05Q216.88-19.55 216.46-19.07 216.03-18.6 215.38-18.6L215.38-18.6 214.18-18.65Q213.28-18.75 212.78-18.75L212.78-18.75Q212.23-18.75 211.13-18.65L211.13-18.65Q212.18-17.4 212.76-16 213.33-14.6 213.33-12.35L213.33-12.35Q213.33-10.65 212.08-8.8 210.83-6.95 209.13-5.9L209.13-5.9Q206.53-4.5 203.08-4.45L203.08-4.45Q202.68-4.05 202.41-3.73 202.13-3.4 202.13-3.2L202.13-3.2Q202.13-2.65 203.08-2.35 204.03-2.05 205.98-1.9L205.98-1.9Q207.48-1.8 209.31-1.28 211.13-0.75 212.18-0.1L212.18-0.1ZM203.38-8.55Q205.68-8.55 207.08-9.8 208.48-11.05 208.48-13.35L208.48-13.35Q208.48-15.1 207.23-16.2 205.98-17.3 204.03-17.3L204.03-17.3Q202.78-17.3 201.36-16.88 199.93-16.45 199.33-15.55L199.33-15.55Q199.03-15.15 198.73-14.03 198.43-12.9 198.43-12.3L198.43-12.3Q198.43-11.45 199.16-10.58 199.88-9.7 201.06-9.13 202.23-8.55 203.38-8.55L203.38-8.55ZM206.53 2.3Q203.78 2.05 202.66 1.83 201.53 1.6 200.83 1.3L200.83 1.3Q198.28 2.65 198.28 4.25L198.28 4.25Q198.28 5.75 199.83 6.53 201.38 7.3 203.38 7.3L203.38 7.3Q204.28 7.3 205.83 7.1 207.38 6.9 208.43 6.4L208.43 6.4Q209.13 6.05 209.48 5.73 209.83 5.4 209.83 4.55L209.83 4.55Q209.83 3.5 208.73 2.95 207.63 2.4 206.53 2.3L206.53 2.3ZM240.03-27.6Q239.88-24.4 239.88-21.45L239.88-21.45Q239.88-18.4 240.28-12.5L240.28-12.5Q240.33-11.6 240.48-8.88 240.63-6.15 240.63-3.9L240.63-3.9Q241.13-3.95 241.7-4.05 242.28-4.15 242.58-4.15L242.58-4.15Q243.68-4.15 244.33-3.6 244.98-3.05 244.98-1.9L244.98-1.9Q244.98-1.15 244.38-0.75 243.78-0.35 242.3-0.18 240.83 0 238.03 0L238.03 0Q234.93 0 233.38-0.2 231.83-0.4 231.23-0.98 230.63-1.55 230.63-2.7L230.63-2.7Q230.63-3.55 231.18-3.85 231.73-4.15 232.73-4.15L232.73-4.15 233.78-4.1 235.43-4 235.18-9.9Q234.88-14.7 234.88-18.7L234.88-18.7Q234.88-20.85 235.03-24.6L235.03-24.6 235.13-27.35Q233.43-27.25 232.48-27.25L232.48-27.25Q231.38-27.25 231-27.65 230.63-28.05 230.63-29.3L230.63-29.3Q230.63-30.7 232.55-31.1 234.48-31.5 238.43-31.5L238.43-31.5Q241.48-31.5 243-31.3 244.53-31.1 244.53-30.4L244.53-30.4Q244.53-28.7 243.8-28.18 243.08-27.65 241.03-27.65L241.03-27.65 240.03-27.6ZM272.47-3.85Q272.72-3.75 273.27-3.6 273.82-3.45 274.07-3.3 274.32-3.15 274.32-2.85L274.32-2.85Q274.37-1.65 273.45-0.88 272.52-0.1 271.27-0.1L271.27-0.1Q269.32-0.1 268.22-1.15 267.12-2.2 266.62-4.35L266.62-4.35Q266.42-5.2 266.42-6.7L266.42-6.7Q266.42-7.55 266.52-9.45L266.52-9.45Q266.62-11.45 266.62-12.65L266.62-12.65Q266.62-14.4 265.65-15.73 264.67-17.05 262.92-17.05L262.92-17.05Q261.87-17.05 260.72-16.43 259.57-15.8 259.12-14.9L259.12-14.9Q258.37-13.45 258.07-11.75L258.07-11.75Q257.52-8.75 257.52-5.5L257.52-5.5Q257.52-3.95 257.57-3.1L257.57-3.1Q257.57-2.9 257.6-2.33 257.62-1.75 257.5-1.28 257.37-0.8 257.07-0.4L257.07-0.4Q256.82-0.15 256.3 0.03 255.77 0.2 255.32 0.2L255.32 0.2Q254.62 0.2 253.57-0.4 252.52-1 252.37-1.75L252.37-1.75 252.32-2.6Q252.32-3.05 252.42-3.65L252.42-3.65Q253.02-7.15 253.02-9.75L253.02-9.75Q253.02-10.9 252.97-11.55L252.97-11.55 252.92-13.9Q252.92-15.1 252.32-16.23 251.72-17.35 250.92-17.35L250.92-17.35Q250.67-17.35 250.22-17.18 249.77-17 249.47-17L249.47-17Q248.97-17 248.4-17.5 247.82-18 247.82-18.55L247.82-18.55Q247.82-19.6 248.52-20.25L248.52-20.25Q249.27-20.85 250-21.2 250.72-21.55 251.67-21.55L251.67-21.55Q252.47-21.55 252.97-21.4 253.47-21.25 254.32-20.75L254.32-20.75Q254.77-20.5 255.37-19.65 255.97-18.8 256.37-17.25L256.37-17.25Q257.67-19.65 259.6-20.63 261.52-21.6 264.52-21.6L264.52-21.6Q265.67-21.6 267-20.85 268.32-20.1 269.27-19.1L269.27-19.1Q270.17-18 270.77-16.38 271.37-14.75 271.37-13.45L271.37-13.45Q271.37-12.7 271.27-11L271.27-11Q271.12-9.65 271.12-8.15L271.12-8.15Q271.12-4.65 272.47-3.85L272.47-3.85ZM291.92-11.25Q292.32-11 293.5-10.33 294.67-9.65 295.07-8.75 295.47-7.85 295.47-6.25L295.47-6.25Q295.47-4.45 294.42-3.08 293.37-1.7 291.72-0.95L291.72-0.95Q290.52-0.4 288.8-0.1 287.07 0.2 286.07 0.2L286.07 0.2Q285.07 0.2 283.5-0.1 281.92-0.4 281.32-0.65L281.32-0.65Q279.77-1.55 278.65-2.85 277.52-4.15 277.52-5.5L277.52-5.5Q277.52-6.5 278.17-7.08 278.82-7.65 279.87-7.65L279.87-7.65Q280.37-7.65 280.92-7.28 281.47-6.9 281.67-6.5L281.67-6.5Q282.22-5.2 283.52-4.55 284.82-3.9 286.17-3.9L286.17-3.9Q287.92-3.9 289.42-4.48 290.92-5.05 290.92-6.05L290.92-6.05Q290.92-6.5 290.7-6.78 290.47-7.05 290.07-7.35L290.07-7.35Q289.37-7.85 287.97-8.18 286.57-8.5 286.17-8.6L286.17-8.6Q284.12-9.05 282.17-9.95L282.17-9.95Q280.22-10.9 279.07-12.2 277.92-13.5 277.92-15.55L277.92-15.55Q277.92-16.9 278.92-18.38 279.92-19.85 281.17-20.45L281.17-20.45Q282.07-20.8 284.2-21.2 286.32-21.6 287.07-21.6L287.07-21.6Q288.22-21.6 289.57-21.38 290.92-21.15 291.62-20.65L291.62-20.65Q292.97-19.85 293.82-18.98 294.67-18.1 294.67-17L294.67-17Q294.67-16.45 294.42-15.83 294.17-15.2 293.82-15.05L293.82-15.05Q293.07-14.7 292.07-14.7L292.07-14.7Q291.62-14.7 291.35-14.95 291.07-15.2 290.62-15.75L290.62-15.75Q290.07-16.6 289.57-16.75L289.57-16.75Q288.97-16.9 287.82-17.13 286.67-17.35 286.27-17.35L286.27-17.35Q285.12-17.35 283.9-16.7 282.67-16.05 282.67-15.2L282.67-15.2Q282.67-14.75 283.05-14.5 283.42-14.25 283.85-14.05 284.27-13.85 284.42-13.8L284.42-13.8Q285.47-13.3 286.75-12.95 288.02-12.6 288.32-12.5L288.32-12.5Q291.02-11.85 291.92-11.25L291.92-11.25ZM302.72-32.1Q304.47-31.95 305.77-31.18 307.07-30.4 307.07-28.85L307.07-28.85Q307.07-27.7 305.99-27.03 304.92-26.35 303.42-26.35L303.42-26.35Q301.97-26.35 301.42-27.1 300.87-27.85 300.87-28.65L300.87-28.65Q300.87-30.15 301.19-31.15 301.52-32.15 302.72-32.1L302.72-32.1ZM306.72-18.95L306.72-9.95 306.72-8.5Q306.72-6.55 306.84-4.83 306.97-3.1 307.17-1.35L307.17-1.35Q307.12-0.85 306.42-0.33 305.72 0.2 305.17 0.2L305.17 0.2Q304.22 0.2 303.24-0.18 302.27-0.55 302.07-1.1L302.07-1.1Q301.77-2.7 301.77-3.95L301.77-3.95Q301.77-8.05 301.52-13.15L301.52-13.15Q301.32-17.65 301.32-19.45L301.32-19.45Q301.32-20.35 302.22-21 303.12-21.65 304.12-21.65L304.12-21.65Q305.57-21.65 306.14-21 306.72-20.35 306.72-18.95L306.72-18.95ZM331.02-0.1Q332.37 0.85 332.84 2 333.32 3.15 333.32 5.2L333.32 5.2Q333.32 6.2 332.74 7.2 332.17 8.2 331.57 8.65L331.57 8.65Q326.82 11.25 322.07 11.25L322.07 11.25Q319.72 11.25 318.02 10.65 316.32 10.05 314.82 9.05L314.82 9.05Q313.82 8.3 313.19 6.98 312.57 5.65 312.57 4.35L312.57 4.35Q312.57 2.55 313.69 1.2 314.82-0.15 316.72-0.75L316.72-0.75Q316.37-1.5 316.37-2.5L316.37-2.5Q316.37-3.45 317.77-5.35L317.77-5.35Q315.37-6.15 313.99-8.2 312.62-10.25 312.62-13L312.62-13Q312.62-14.7 313.42-16.03 314.22-17.35 315.82-19.1L315.82-19.1Q316.92-20.3 318.62-20.85 320.32-21.4 322.87-21.4L322.87-21.4Q324.67-21.4 327.32-20.6L327.32-20.6Q330.47-22.8 332.87-22.8L332.87-22.8Q333.47-22.8 334.24-22.5 335.02-22.2 335.42-21.9L335.42-21.9Q335.72-21.35 335.72-20.05L335.72-20.05Q335.72-19.55 335.29-19.07 334.87-18.6 334.22-18.6L334.22-18.6 333.02-18.65Q332.12-18.75 331.62-18.75L331.62-18.75Q331.07-18.75 329.97-18.65L329.97-18.65Q331.02-17.4 331.59-16 332.17-14.6 332.17-12.35L332.17-12.35Q332.17-10.65 330.92-8.8 329.67-6.95 327.97-5.9L327.97-5.9Q325.37-4.5 321.92-4.45L321.92-4.45Q321.52-4.05 321.24-3.73 320.97-3.4 320.97-3.2L320.97-3.2Q320.97-2.65 321.92-2.35 322.87-2.05 324.82-1.9L324.82-1.9Q326.32-1.8 328.14-1.28 329.97-0.75 331.02-0.1L331.02-0.1ZM322.22-8.55Q324.52-8.55 325.92-9.8 327.32-11.05 327.32-13.35L327.32-13.35Q327.32-15.1 326.07-16.2 324.82-17.3 322.87-17.3L322.87-17.3Q321.62-17.3 320.19-16.88 318.77-16.45 318.17-15.55L318.17-15.55Q317.87-15.15 317.57-14.03 317.27-12.9 317.27-12.3L317.27-12.3Q317.27-11.45 317.99-10.58 318.72-9.7 319.89-9.13 321.07-8.55 322.22-8.55L322.22-8.55ZM325.37 2.3Q322.62 2.05 321.49 1.83 320.37 1.6 319.67 1.3L319.67 1.3Q317.12 2.65 317.12 4.25L317.12 4.25Q317.12 5.75 318.67 6.53 320.22 7.3 322.22 7.3L322.22 7.3Q323.12 7.3 324.67 7.1 326.22 6.9 327.27 6.4L327.27 6.4Q327.97 6.05 328.32 5.73 328.67 5.4 328.67 4.55L328.67 4.55Q328.67 3.5 327.57 2.95 326.47 2.4 325.37 2.3L325.37 2.3ZM344.66-31.7Q344.66-30.4 344.61-28.68 344.56-26.95 344.51-26.05L344.51-26.05Q344.36-23.5 344.36-20.95L344.36-20.95Q344.36-19.05 344.51-17L344.51-17Q346.06-19.25 347.86-20.3 349.66-21.35 352.21-21.35L352.21-21.35Q354.06-21.35 355.66-19.7 357.26-18.05 357.71-15.85L357.71-15.85Q357.86-13.9 357.86-11.1L357.86-11.1Q357.86-9.3 358.06-6.4L358.06-6.4Q358.16-5.3 358.64-4.35 359.11-3.4 360.01-3.4L360.01-3.4Q360.46-3.4 360.74-3.45 361.01-3.5 361.26-3.5L361.26-3.5Q361.96-3.5 362.24-3.15 362.51-2.8 362.51-2.15L362.51-2.15Q362.51-0.95 361.31-0.35 360.11 0.25 359.11 0.25L359.11 0.25Q355.51 0.25 354.16-2.75L354.16-2.75Q353.41-4.45 353.21-7.18 353.01-9.9 353.01-13.55L353.01-13.55Q353.01-17.15 350.56-17.15L350.56-17.15Q349.21-17.15 347.84-15.73 346.46-14.3 345.56-11.98 344.66-9.65 344.66-7.15L344.66-7.15 344.71-1.95Q344.71-0.85 343.86-0.33 343.01 0.2 342.26 0.2L342.26 0.2Q341.16 0.2 340.26-0.48 339.36-1.15 339.36-2L339.36-2Q339.71-5.75 339.71-14.55L339.71-14.55Q339.71-16.15 339.46-26.4L339.46-26.4 339.31-31Q339.31-32.1 340.31-32.93 341.31-33.75 342.56-33.75L342.56-33.75Q343.66-33.75 344.16-33.25 344.66-32.75 344.66-31.7L344.66-31.7ZM367.91-17.1L365.51-17.3Q364.81-17.4 364.38-17.9 363.96-18.4 363.96-19.1L363.96-19.1Q363.96-19.45 364.13-19.85 364.31-20.25 364.66-20.55L364.66-20.55Q365.31-21.2 368.16-21.2L368.16-21.2Q368.56-23.15 368.56-25.15L368.56-25.15Q368.56-25.9 368.51-26.45 368.46-27 368.46-27.3L368.46-27.3Q368.46-28.4 369.29-28.95 370.11-29.5 371.16-29.5L371.16-29.5Q372.46-29.5 372.94-28.85 373.41-28.2 373.41-26.45L373.41-26.45Q373.41-23.85 372.96-21.35L372.96-21.35Q373.76-21.35 375.16-21.45L375.16-21.45Q377.06-21.55 377.91-21.55L377.91-21.55Q378.76-21.55 379.38-21.13 380.01-20.7 380.01-19.95L380.01-19.95Q380.01-18 378.26-17.65L378.26-17.65Q376.41-17.2 372.51-17.1L372.51-17.1Q372.36-15.15 372.36-12.85L372.36-12.85Q372.36-9.25 372.81-6.95L372.81-6.95Q373.11-5.35 373.84-4.63 374.56-3.9 376.01-3.9L376.01-3.9Q376.86-3.9 377.76-4.35L377.76-4.35Q378.36-4.7 378.86-4.7L378.86-4.7Q379.56-4.7 379.88-4.25 380.21-3.8 380.21-3.05L380.21-3.05Q380.21-1.65 378.71-0.73 377.21 0.2 374.86 0.2L374.86 0.2Q373.41 0.2 371.94-0.5 370.46-1.2 369.46-2.25L369.46-2.25Q369.31-2.4 368.91-3.4 368.51-4.4 368.21-5.55L368.21-5.55Q367.71-7.9 367.71-12.15L367.71-12.15Q367.71-14 367.91-17.1L367.91-17.1ZM398.31-11.25Q398.71-11 399.88-10.33 401.06-9.65 401.46-8.75 401.86-7.85 401.86-6.25L401.86-6.25Q401.86-4.45 400.81-3.08 399.76-1.7 398.11-0.95L398.11-0.95Q396.91-0.4 395.18-0.1 393.46 0.2 392.46 0.2L392.46 0.2Q391.46 0.2 389.88-0.1 388.31-0.4 387.71-0.65L387.71-0.65Q386.16-1.55 385.03-2.85 383.91-4.15 383.91-5.5L383.91-5.5Q383.91-6.5 384.56-7.08 385.21-7.65 386.26-7.65L386.26-7.65Q386.76-7.65 387.31-7.28 387.86-6.9 388.06-6.5L388.06-6.5Q388.61-5.2 389.91-4.55 391.21-3.9 392.56-3.9L392.56-3.9Q394.31-3.9 395.81-4.48 397.31-5.05 397.31-6.05L397.31-6.05Q397.31-6.5 397.08-6.78 396.86-7.05 396.46-7.35L396.46-7.35Q395.76-7.85 394.36-8.18 392.96-8.5 392.56-8.6L392.56-8.6Q390.51-9.05 388.56-9.95L388.56-9.95Q386.61-10.9 385.46-12.2 384.31-13.5 384.31-15.55L384.31-15.55Q384.31-16.9 385.31-18.38 386.31-19.85 387.56-20.45L387.56-20.45Q388.46-20.8 390.58-21.2 392.71-21.6 393.46-21.6L393.46-21.6Q394.61-21.6 395.96-21.38 397.31-21.15 398.01-20.65L398.01-20.65Q399.36-19.85 400.21-18.98 401.06-18.1 401.06-17L401.06-17Q401.06-16.45 400.81-15.83 400.56-15.2 400.21-15.05L400.21-15.05Q399.46-14.7 398.46-14.7L398.46-14.7Q398.01-14.7 397.73-14.95 397.46-15.2 397.01-15.75L397.01-15.75Q396.46-16.6 395.96-16.75L395.96-16.75Q395.36-16.9 394.21-17.13 393.06-17.35 392.66-17.35L392.66-17.35Q391.51-17.35 390.28-16.7 389.06-16.05 389.06-15.2L389.06-15.2Q389.06-14.75 389.43-14.5 389.81-14.25 390.23-14.05 390.66-13.85 390.81-13.8L390.81-13.8Q391.86-13.3 393.13-12.95 394.41-12.6 394.71-12.5L394.71-12.5Q397.41-11.85 398.31-11.25L398.31-11.25ZM408.21 0.15L408.06 0.15Q407.51 0.15 407.26-0.05L407.26-0.05Q406.66-0.4 406.21-0.98 405.76-1.55 405.76-2.6L405.76-2.6Q405.81-3.35 406.11-3.93 406.41-4.5 406.96-4.75L406.96-4.75Q408.01-5.3 409.66-5.3L409.66-5.3Q410.86-5.3 411.61-4.42 412.36-3.55 412.36-2.3L412.36-2.3Q412.36-0.8 411.48 1.18 410.61 3.15 409.76 4.25L409.76 4.25Q409.11 5 408.28 5.55 407.46 6.1 406.86 6.1L406.86 6.1Q405.66 6.1 405.33 5.73 405.01 5.35 405.01 4.4L405.01 4.4Q405.01 4 406.06 3.15L406.06 3.15Q406.91 2.4 407.11 2.1L407.11 2.1Q407.86 1.1 408.21 0.15L408.21 0.15ZM451.1-6.8Q452.05-6.8 452.53-6.08 453-5.35 453-4.5L453-4.5Q453-3.45 452.68-3.03 452.35-2.6 451.45-2.15L451.45-2.15Q449.35-1.15 446.25-0.55 443.15 0.05 439.6 0.05L439.6 0.05Q435.15 0.05 433.08-1.45 431-2.95 430.53-5.08 430.05-7.2 430.05-10.65L430.05-10.65Q430.05-14.35 430.35-17.93 430.65-21.5 431.4-27.05L431.4-27.05Q431.75-29.45 433.3-30.53 434.85-31.6 436.7-31.6L436.7-31.6Q438.25-31.6 441.75-31.7L441.75-31.7 446.1-31.75Q448.8-31.75 450-31.6L450-31.6Q451.5-31.3 452.23-30.93 452.95-30.55 452.95-29.65L452.95-29.65Q452.95-28.65 452.28-27.7 451.6-26.75 450.25-26.75L450.25-26.75Q448.7-26.75 445.8-26.95L445.8-26.95Q442.9-27.15 441.45-27.15L441.45-27.15Q440.2-27.15 439-27L439-27Q437.6-26.9 437-26.65 436.4-26.4 436.3-25.8L436.3-25.8Q435.6-20.65 435.6-18.2L435.6-18.2Q436.75-18.05 437.85-18.05L437.85-18.05Q439.25-18.05 440.85-18.2 442.45-18.35 442.9-18.4L442.9-18.4Q445.55-18.65 447.45-18.65L447.45-18.65Q448.55-18.65 449.13-18.25 449.7-17.85 449.7-17.15L449.7-17.15Q449.7-16.05 449.13-15.45 448.55-14.85 447.1-14.55L447.1-14.55Q445.35-14.2 442.78-14 440.2-13.8 437.75-13.8L437.75-13.8Q436.9-13.8 435.4-13.9L435.4-13.9Q435.25-10.85 435.25-8.25L435.25-8.25Q435.25-4.7 439.95-4.7L439.95-4.7Q442.45-4.7 444.1-5.05 445.75-5.4 447.9-6.05L447.9-6.05Q449.9-6.8 451.1-6.8L451.1-6.8ZM488.8-1.75Q488.05-3.15 487.85-4.88 487.65-6.6 487.65-9.65L487.65-9.65Q487.65-12.55 486.85-14.7 486.05-16.85 483.55-16.85L483.55-16.85Q482.6-16.85 481.67-16.28 480.75-15.7 480.3-14.85L480.3-14.85Q479.6-13.5 479.35-11.93 479.1-10.35 479.1-8.3L479.1-8.3Q479.1-7 479.25-5.65L479.25-5.65Q479.25-5.25 479.32-4.38 479.4-3.5 479.4-2.8L479.4-2.8Q479.4 0.2 477.3 0.2L477.3 0.2Q474.55 0.2 474.4-2.7L474.4-2.7Q474.4-4.75 474.45-4.9L474.45-4.9 474.45-7.05Q474.45-8.85 474.3-10.55 474.15-12.25 473.95-13.1L473.95-13.1Q473.5-14.75 472.77-15.65 472.05-16.55 470.5-16.55L470.5-16.55Q468.3-16.55 466.95-14.65L466.95-14.65Q466-13.15 465.7-11L465.7-11Q465.4-8.25 465.27-6.68 465.15-5.1 465.15-3.05L465.15-3.05Q465.15-1.6 464.67-0.7 464.2 0.2 462.9 0.2L462.9 0.2Q461.95 0.2 460.92-0.33 459.9-0.85 459.9-1.75L459.9-1.75Q459.9-2.7 460.1-3.65L460.1-3.65Q460.55-6.5 460.55-13.85L460.55-13.85Q460.55-15.05 459.97-16.18 459.4-17.3 458.6-17.3L458.6-17.3Q458.4-17.3 457.87-17.1 457.35-16.9 457.1-16.9L457.1-16.9Q456.45-16.9 455.92-17.5 455.4-18.1 455.4-18.5L455.4-18.5Q455.4-19.75 456.62-20.63 457.85-21.5 459.2-21.5L459.2-21.5Q461.05-21.5 462.35-20.35 463.65-19.2 464.35-17.15L464.35-17.15Q465.5-19.15 467.45-20.38 469.4-21.6 471.8-21.6L471.8-21.6Q473.3-21.6 474.22-21.23 475.15-20.85 475.75-20.18 476.35-19.5 477.3-18.15L477.3-18.15Q478.55-19.75 480.52-20.65 482.5-21.55 484.6-21.55L484.6-21.55Q487.1-21.55 489.1-19.53 491.1-17.5 491.8-14.85L491.8-14.85Q492.15-13.5 492.15-9.65L492.15-9.65 492.35-6.75Q492.6-4.15 494.05-3.6L494.05-3.6Q495.75-3.1 495.75-2.55L495.75-2.55Q495.75-1.35 495.15-0.8L495.15-0.8Q494.7-0.5 493.9-0.15 493.1 0.2 492.65 0.2L492.65 0.2Q489.95 0.2 488.8-1.75L488.8-1.75ZM500.45-17.4Q500-17.4 499.6-17.32 499.2-17.25 498.8-17.25L498.8-17.25Q498.25-17.25 497.77-17.75 497.3-18.25 497.3-18.65L497.3-18.65Q497.3-19.95 498.6-20.68 499.9-21.4 501.25-21.4L501.25-21.4Q502.4-21.4 503.62-20.63 504.85-19.85 505.45-18.65L505.45-18.65Q506.75-20.2 508.65-20.9 510.55-21.6 512.6-21.6L512.6-21.6Q514.9-21.6 516.87-20.15 518.85-18.7 520-16.48 521.15-14.25 521.15-12.05L521.15-12.05Q521.15-9.9 520.7-8.22 520.25-6.55 519.1-4.85L519.1-4.85Q517.8-3.05 515.62-1.9 513.45-0.75 510.45-0.75L510.45-0.75Q509.65-0.75 508.5-1.18 507.35-1.6 506.6-2.1L506.6-2.1Q506.25 1.3 506.25 3.8L506.25 3.8Q506.25 5.3 506.4 6.65L506.4 6.65Q506.5 8.25 506.5 8.95L506.5 8.95Q506.5 10.05 505.75 10.58 505 11.1 504.1 11.1L504.1 11.1Q502.3 11.1 501.72 10.13 501.15 9.15 501.15 7.35L501.15 7.35Q501.35 3.05 501.65-0.6L501.65-0.6Q501.95-5.1 501.95-14.5L501.95-14.5Q501.95-15.4 501.6-16.4 501.25-17.4 500.45-17.4L500.45-17.4ZM506.8-7.05Q507.05-6.1 508.22-5.48 509.4-4.85 510.35-4.85L510.35-4.85Q513.2-4.85 514.6-6.4L514.6-6.4Q515.65-7.5 515.97-8.55 516.3-9.6 516.3-11.9L516.3-11.9Q516.3-13.7 515.6-14.93 514.9-16.15 513.9-16.73 512.9-17.3 512-17.3L512-17.3Q509.95-17.3 508.67-16.07 507.4-14.85 507.05-12.75L507.05-12.75Q506.8-11.1 506.8-7.05L506.8-7.05ZM545.54-16.05Q545.94-15.35 546.19-14.03 546.44-12.7 546.44-11.65L546.44-11.65Q546.44-9.7 545.59-6.1L545.59-6.1Q542.14 0.2 535.39 0.2L535.39 0.2Q532.89 0.2 530.29-1.45 527.69-3.1 526.69-5.25L526.69-5.25Q525.34-9.55 525.34-10.7L525.34-10.7Q525.34-12.7 526.22-14.95 527.09-17.2 528.44-18.85L528.44-18.85Q529.29-20 531.49-20.83 533.69-21.65 535.49-21.65L535.49-21.65Q538.99-21.65 541.44-20.33 543.89-19 545.54-16.05L545.54-16.05ZM541.19-8Q541.44-8.65 541.44-11.35L541.44-11.35Q541.44-12.8 540.92-14.2 540.39-15.6 539.39-16.6L539.39-16.6Q539.29-16.7 538.84-16.93 538.39-17.15 537.62-17.38 536.84-17.6 535.84-17.6L535.84-17.6Q533.04-17.6 531.74-15.35 530.44-13.1 530.44-10.25L530.44-10.25Q530.44-9.75 530.72-8.35 530.99-6.95 531.19-6.6L531.19-6.6Q531.34-6.25 531.97-5.63 532.59-5 533.52-4.53 534.44-4.05 535.44-4.05L535.44-4.05Q537.69-4.05 539.04-5.13 540.39-6.2 541.19-8L541.19-8ZM574.44-11.9Q574.74-13 575.09-14.9L575.09-14.9Q575.59-17.15 575.89-18.3 576.19-19.45 576.69-20.25L576.69-20.25Q577.24-21.15 577.67-21.45 578.09-21.75 578.59-21.75L578.59-21.75Q581.19-21.75 581.19-19.75L581.19-19.75Q581.19-18.75 580.39-16L580.39-16Q577.74-8 576.59-3.6L576.59-3.6Q576.09-1.75 575.09-0.78 574.09 0.2 572.39 0.2L572.39 0.2Q571.54 0.2 570.67-0.63 569.79-1.45 569.24-2.65L569.24-2.65 568.69-4Q567.29-7.55 566.62-9.47 565.94-11.4 565.74-12.95L565.74-12.95 565.29-11.35Q564.09-7.05 562.79-3.35L562.79-3.35Q562.14-1.45 561.19-0.63 560.24 0.2 558.74 0.2L558.74 0.2Q557.84 0.2 557.17-0.2 556.49-0.6 555.89-1.55L555.89-1.55Q555.09-2.85 554.37-5.05 553.64-7.25 552.29-11.9L552.29-11.9Q551.64-13.9 551.09-16.13 550.54-18.35 550.54-19.25L550.54-19.25Q550.54-20.3 551.09-20.9 551.64-21.5 552.69-21.5L552.69-21.5Q554.04-21.5 554.59-20.98 555.14-20.45 555.59-19.4L555.59-19.4Q555.84-17.6 556.69-14.3L556.69-14.3 557.79-9.6Q557.89-9.05 558.39-7.3L558.39-7.3 558.79-5.85Q559.89-8.2 560.64-10.35 561.39-12.5 562.29-15.65L562.29-15.65Q562.34-15.85 563.29-19.1L563.29-19.1Q563.94-20.15 564.44-20.68 564.94-21.2 565.44-21.2L565.44-21.2Q566.44-21.2 567.17-20.58 567.89-19.95 568.24-19.05L568.24-19.05Q568.84-17.1 569.29-15.5L569.29-15.5Q569.49-14.85 570.22-12.38 570.94-9.9 571.54-8.2 572.14-6.5 572.54-5.8L572.54-5.8 574.44-11.9ZM584.99-10.6Q584.99-12.5 585.69-14.43 586.39-16.35 587.54-17.95L587.54-17.95Q588.69-19.55 591.19-20.58 593.69-21.6 595.64-21.6L595.64-21.6Q597.64-21.6 599.71-21.05 601.79-20.5 602.59-19.35L602.59-19.35Q604.44-16.75 604.44-14.25L604.44-14.25Q604.44-12.9 603.86-11.95 603.29-11 602.24-9.9L602.24-9.9Q601.39-9 599.56-8.7 597.74-8.4 595.94-8.4L595.94-8.4Q594.79-8.4 593.14-8.63 591.49-8.85 589.94-9.2L589.94-9.2Q590.04-8.2 590.44-7.25 590.84-6.3 591.39-5.8L591.39-5.8Q592.39-4.85 593.46-4.6 594.54-4.35 596.24-4.35L596.24-4.35Q598.04-4.35 599.59-4.95L599.59-4.95Q600.84-5.4 601.64-5.4L601.64-5.4Q602.59-5.4 603.09-4.83 603.59-4.25 603.59-3.35L603.59-3.35Q603.59-2.1 602.14-1.3 600.69-0.5 598.81-0.13 596.94 0.25 595.79 0.25L595.79 0.25Q593.44 0.25 591.24-0.6 589.04-1.45 587.59-3L587.59-3Q586.39-4.4 585.69-6.38 584.99-8.35 584.99-10.6L584.99-10.6ZM595.89-17.35Q594.79-17.35 593.69-16.93 592.59-16.5 591.89-15.75L591.89-15.75Q590.99-14.8 590.66-14.23 590.34-13.65 590.24-12.65L590.24-12.65Q591.49-12.25 595.44-12.25L595.44-12.25Q597.59-12.25 598.76-12.9 599.94-13.55 599.94-14.6L599.94-14.6Q599.94-15.65 598.64-16.5 597.34-17.35 595.89-17.35L595.89-17.35ZM616.63-2Q616.63-1.15 615.98-0.5 615.33 0.15 614.38 0.15L614.38 0.15Q612.88 0.15 612.18-0.43 611.48-1 611.48-2.55L611.48-2.55Q611.48-4.4 611.38-7.4L611.38-7.4Q611.28-9.9 611.28-11.6L611.28-11.6Q611.28-12.4 611.38-13.7L611.38-13.7Q611.48-14.9 611.48-15.5L611.48-15.5Q611.33-16.45 610.73-17.07 610.13-17.7 609.18-17.7L609.18-17.7Q608.73-17.7 608.43-18.13 608.13-18.55 608.13-19L608.13-19Q608.13-20.15 609.06-20.75 609.98-21.35 611.28-21.35L611.28-21.35Q613.98-21.35 615.03-18.15L615.03-18.15Q616.33-19.65 618.01-20.58 619.68-21.5 621.23-21.5L621.23-21.5Q623.08-21.5 624.61-20.5 626.13-19.5 626.13-17.8L626.13-17.8Q626.13-16.85 625.31-15.85 624.48-14.85 623.63-14.85L623.63-14.85Q623.18-14.85 622.86-15.08 622.53-15.3 622.08-15.75L622.08-15.75Q621.58-16.25 621.23-16.48 620.88-16.7 620.43-16.7L620.43-16.7Q619.63-16.7 618.93-16.45 618.23-16.2 617.98-15.85L617.98-15.85Q617.18-14.6 616.81-13.6 616.43-12.6 616.43-11.45L616.43-11.45Q616.43-10.6 616.38-10.1L616.38-10.1 616.33-7.25Q616.33-6.6 616.38-5.8 616.43-5 616.48-4.6L616.48-4.6Q616.63-3.25 616.63-2L616.63-2ZM631.63-32.1Q633.38-31.95 634.68-31.18 635.98-30.4 635.98-28.85L635.98-28.85Q635.98-27.7 634.91-27.03 633.83-26.35 632.33-26.35L632.33-26.35Q630.88-26.35 630.33-27.1 629.78-27.85 629.78-28.65L629.78-28.65Q629.78-30.15 630.11-31.15 630.43-32.15 631.63-32.1L631.63-32.1ZM635.63-18.95L635.63-9.95 635.63-8.5Q635.63-6.55 635.76-4.83 635.88-3.1 636.08-1.35L636.08-1.35Q636.03-0.85 635.33-0.33 634.63 0.2 634.08 0.2L634.08 0.2Q633.13 0.2 632.16-0.18 631.18-0.55 630.98-1.1L630.98-1.1Q630.68-2.7 630.68-3.95L630.68-3.95Q630.68-8.05 630.43-13.15L630.43-13.15Q630.23-17.65 630.23-19.45L630.23-19.45Q630.23-20.35 631.13-21 632.03-21.65 633.03-21.65L633.03-21.65Q634.48-21.65 635.06-21 635.63-20.35 635.63-18.95L635.63-18.95ZM664.68-3.85Q664.93-3.75 665.48-3.6 666.03-3.45 666.28-3.3 666.53-3.15 666.53-2.85L666.53-2.85Q666.58-1.65 665.65-0.88 664.73-0.1 663.48-0.1L663.48-0.1Q661.53-0.1 660.43-1.15 659.33-2.2 658.83-4.35L658.83-4.35Q658.63-5.2 658.63-6.7L658.63-6.7Q658.63-7.55 658.73-9.45L658.73-9.45Q658.83-11.45 658.83-12.65L658.83-12.65Q658.83-14.4 657.85-15.73 656.88-17.05 655.13-17.05L655.13-17.05Q654.08-17.05 652.93-16.43 651.78-15.8 651.33-14.9L651.33-14.9Q650.58-13.45 650.28-11.75L650.28-11.75Q649.73-8.75 649.73-5.5L649.73-5.5Q649.73-3.95 649.78-3.1L649.78-3.1Q649.78-2.9 649.8-2.33 649.83-1.75 649.7-1.28 649.58-0.8 649.28-0.4L649.28-0.4Q649.03-0.15 648.5 0.03 647.98 0.2 647.53 0.2L647.53 0.2Q646.83 0.2 645.78-0.4 644.73-1 644.58-1.75L644.58-1.75 644.53-2.6Q644.53-3.05 644.63-3.65L644.63-3.65Q645.23-7.15 645.23-9.75L645.23-9.75Q645.23-10.9 645.18-11.55L645.18-11.55 645.13-13.9Q645.13-15.1 644.53-16.23 643.93-17.35 643.13-17.35L643.13-17.35Q642.88-17.35 642.43-17.18 641.98-17 641.68-17L641.68-17Q641.18-17 640.6-17.5 640.03-18 640.03-18.55L640.03-18.55Q640.03-19.6 640.73-20.25L640.73-20.25Q641.48-20.85 642.2-21.2 642.93-21.55 643.88-21.55L643.88-21.55Q644.68-21.55 645.18-21.4 645.68-21.25 646.53-20.75L646.53-20.75Q646.98-20.5 647.58-19.65 648.18-18.8 648.58-17.25L648.58-17.25Q649.88-19.65 651.8-20.63 653.73-21.6 656.73-21.6L656.73-21.6Q657.88-21.6 659.2-20.85 660.53-20.1 661.48-19.1L661.48-19.1Q662.38-18 662.98-16.38 663.58-14.75 663.58-13.45L663.58-13.45Q663.58-12.7 663.48-11L663.48-11Q663.33-9.65 663.33-8.15L663.33-8.15Q663.33-4.65 664.68-3.85L664.68-3.85ZM688.18-0.1Q689.53 0.85 690 2 690.48 3.15 690.48 5.2L690.48 5.2Q690.48 6.2 689.9 7.2 689.33 8.2 688.73 8.65L688.73 8.65Q683.98 11.25 679.23 11.25L679.23 11.25Q676.88 11.25 675.18 10.65 673.48 10.05 671.98 9.05L671.98 9.05Q670.98 8.3 670.35 6.98 669.73 5.65 669.73 4.35L669.73 4.35Q669.73 2.55 670.85 1.2 671.98-0.15 673.88-0.75L673.88-0.75Q673.53-1.5 673.53-2.5L673.53-2.5Q673.53-3.45 674.93-5.35L674.93-5.35Q672.53-6.15 671.15-8.2 669.78-10.25 669.78-13L669.78-13Q669.78-14.7 670.58-16.03 671.38-17.35 672.98-19.1L672.98-19.1Q674.08-20.3 675.78-20.85 677.48-21.4 680.03-21.4L680.03-21.4Q681.83-21.4 684.48-20.6L684.48-20.6Q687.63-22.8 690.03-22.8L690.03-22.8Q690.63-22.8 691.4-22.5 692.18-22.2 692.58-21.9L692.58-21.9Q692.88-21.35 692.88-20.05L692.88-20.05Q692.88-19.55 692.45-19.07 692.03-18.6 691.38-18.6L691.38-18.6 690.18-18.65Q689.28-18.75 688.78-18.75L688.78-18.75Q688.23-18.75 687.13-18.65L687.13-18.65Q688.18-17.4 688.75-16 689.33-14.6 689.33-12.35L689.33-12.35Q689.33-10.65 688.08-8.8 686.83-6.95 685.13-5.9L685.13-5.9Q682.53-4.5 679.08-4.45L679.08-4.45Q678.68-4.05 678.4-3.73 678.13-3.4 678.13-3.2L678.13-3.2Q678.13-2.65 679.08-2.35 680.03-2.05 681.98-1.9L681.98-1.9Q683.48-1.8 685.3-1.28 687.13-0.75 688.18-0.1L688.18-0.1ZM679.38-8.55Q681.68-8.55 683.08-9.8 684.48-11.05 684.48-13.35L684.48-13.35Q684.48-15.1 683.23-16.2 681.98-17.3 680.03-17.3L680.03-17.3Q678.78-17.3 677.35-16.88 675.93-16.45 675.33-15.55L675.33-15.55Q675.03-15.15 674.73-14.03 674.43-12.9 674.43-12.3L674.43-12.3Q674.43-11.45 675.15-10.58 675.88-9.7 677.05-9.13 678.23-8.55 679.38-8.55L679.38-8.55ZM682.53 2.3Q679.78 2.05 678.65 1.83 677.53 1.6 676.83 1.3L676.83 1.3Q674.28 2.65 674.28 4.25L674.28 4.25Q674.28 5.75 675.83 6.53 677.38 7.3 679.38 7.3L679.38 7.3Q680.28 7.3 681.83 7.1 683.38 6.9 684.43 6.4L684.43 6.4Q685.13 6.05 685.48 5.73 685.83 5.4 685.83 4.55L685.83 4.55Q685.83 3.5 684.73 2.95 683.63 2.4 682.53 2.3L682.53 2.3ZM715.12-31.7Q721.92-31.7 725.9-29.83 729.87-27.95 731.92-25.65L731.92-25.65Q733.57-23.75 734.62-21.28 735.67-18.8 735.67-15.35L735.67-15.35Q735.67-12.8 734.52-10.03 733.37-7.25 731.52-5.55L731.52-5.55Q729.57-3.7 727.85-2.55 726.12-1.4 723.2-0.68 720.27 0.05 715.77 0.05L715.77 0.05Q712.37 0.05 709.62-0.73 706.87-1.5 706.87-3.35L706.87-3.35Q706.87-4.1 707.55-4.53 708.22-4.95 709.02-4.95L709.02-4.95Q709.47-4.95 709.62-4.9L709.62-4.9Q709.97-8.2 709.97-11.9L709.97-11.9Q709.97-16.05 709.77-18.78 709.57-21.5 709.22-24.2L709.22-24.2Q709.17-24.55 709-26.15 708.82-27.75 708.82-29.4L708.82-29.4Q708.82-30.45 709.87-31.18 710.92-31.9 712.02-31.9L712.02-31.9Q712.67-31.9 713.77-31.8L713.77-31.8Q714.67-31.7 715.12-31.7L715.12-31.7ZM714.47-4.65Q715.67-4.45 717.62-4.45L717.62-4.45Q720.92-4.45 723.87-5.83 726.82-7.2 728.62-9.68 730.42-12.15 730.42-15.4L730.42-15.4Q730.42-18.8 729.22-21.2 728.02-23.6 725.52-25.15L725.52-25.15Q723.67-26.3 720.97-26.83 718.27-27.35 714.47-27.35L714.47-27.35Q714.47-26.15 714.62-24.35L714.62-24.35Q714.62-23.75 714.72-22.25L714.72-22.25Q715.02-16.45 715.02-12.9L715.02-12.9Q715.02-7.75 714.47-4.65L714.47-4.65ZM739.72-10.6Q739.72-12.5 740.42-14.43 741.12-16.35 742.27-17.95L742.27-17.95Q743.42-19.55 745.92-20.58 748.42-21.6 750.37-21.6L750.37-21.6Q752.37-21.6 754.44-21.05 756.52-20.5 757.32-19.35L757.32-19.35Q759.17-16.75 759.17-14.25L759.17-14.25Q759.17-12.9 758.59-11.95 758.02-11 756.97-9.9L756.97-9.9Q756.12-9 754.29-8.7 752.47-8.4 750.67-8.4L750.67-8.4Q749.52-8.4 747.87-8.63 746.22-8.85 744.67-9.2L744.67-9.2Q744.77-8.2 745.17-7.25 745.57-6.3 746.12-5.8L746.12-5.8Q747.12-4.85 748.19-4.6 749.27-4.35 750.97-4.35L750.97-4.35Q752.77-4.35 754.32-4.95L754.32-4.95Q755.57-5.4 756.37-5.4L756.37-5.4Q757.32-5.4 757.82-4.83 758.32-4.25 758.32-3.35L758.32-3.35Q758.32-2.1 756.87-1.3 755.42-0.5 753.54-0.13 751.67 0.25 750.52 0.25L750.52 0.25Q748.17 0.25 745.97-0.6 743.77-1.45 742.32-3L742.32-3Q741.12-4.4 740.42-6.38 739.72-8.35 739.72-10.6L739.72-10.6ZM750.62-17.35Q749.52-17.35 748.42-16.93 747.32-16.5 746.62-15.75L746.62-15.75Q745.72-14.8 745.39-14.23 745.07-13.65 744.97-12.65L744.97-12.65Q746.22-12.25 750.17-12.25L750.17-12.25Q752.32-12.25 753.49-12.9 754.67-13.55 754.67-14.6L754.67-14.6Q754.67-15.65 753.37-16.5 752.07-17.35 750.62-17.35L750.62-17.35ZM781.72-16.7Q781.72-14.5 779.47-14.5L779.47-14.5Q778.72-14.5 778.22-14.85 777.72-15.2 777.12-15.9L777.12-15.9Q775.62-17.55 774.52-17.55L774.52-17.55Q773.07-17.55 771.69-16.7 770.32-15.85 769.47-14.3 768.62-12.75 768.62-10.85L768.62-10.85Q768.62-8.75 769.44-7.35 770.27-5.95 772.02-4.95L772.02-4.95Q772.67-4.6 773.54-4.4 774.42-4.2 775.07-4.2L775.07-4.2Q776.52-4.2 778.72-5.35L778.72-5.35Q779.52-5.75 780.07-5.95 780.62-6.15 781.22-6.15L781.22-6.15Q781.77-6.15 782.47-5.65 783.17-5.15 783.17-4.4L783.17-4.4Q783.17-2.9 781.77-1.88 780.37-0.85 778.34-0.33 776.32 0.2 774.47 0.2L774.47 0.2Q771.52 0.2 768.99-1.15 766.47-2.5 764.97-4.88 763.47-7.25 763.47-10.25L763.47-10.25Q763.47-13.45 764.92-16.1 766.37-18.75 768.82-20.25 771.27-21.75 774.17-21.75L774.17-21.75Q775.82-21.75 777.57-21.15 779.32-20.55 780.52-19.4 781.72-18.25 781.72-16.7L781.72-16.7ZM789.96-32.1Q791.71-31.95 793.01-31.18 794.31-30.4 794.31-28.85L794.31-28.85Q794.31-27.7 793.24-27.03 792.16-26.35 790.66-26.35L790.66-26.35Q789.21-26.35 788.66-27.1 788.11-27.85 788.11-28.65L788.11-28.65Q788.11-30.15 788.44-31.15 788.76-32.15 789.96-32.1L789.96-32.1ZM793.96-18.95L793.96-9.95 793.96-8.5Q793.96-6.55 794.09-4.83 794.21-3.1 794.41-1.35L794.41-1.35Q794.36-0.85 793.66-0.33 792.96 0.2 792.41 0.2L792.41 0.2Q791.46 0.2 790.49-0.18 789.51-0.55 789.31-1.1L789.31-1.1Q789.01-2.7 789.01-3.95L789.01-3.95Q789.01-8.05 788.76-13.15L788.76-13.15Q788.56-17.65 788.56-19.45L788.56-19.45Q788.56-20.35 789.46-21 790.36-21.65 791.36-21.65L791.36-21.65Q792.81-21.65 793.39-21 793.96-20.35 793.96-18.95L793.96-18.95ZM814.21-11.25Q814.61-11 815.79-10.33 816.96-9.65 817.36-8.75 817.76-7.85 817.76-6.25L817.76-6.25Q817.76-4.45 816.71-3.08 815.66-1.7 814.01-0.95L814.01-0.95Q812.81-0.4 811.09-0.1 809.36 0.2 808.36 0.2L808.36 0.2Q807.36 0.2 805.79-0.1 804.21-0.4 803.61-0.65L803.61-0.65Q802.06-1.55 800.94-2.85 799.81-4.15 799.81-5.5L799.81-5.5Q799.81-6.5 800.46-7.08 801.11-7.65 802.16-7.65L802.16-7.65Q802.66-7.65 803.21-7.28 803.76-6.9 803.96-6.5L803.96-6.5Q804.51-5.2 805.81-4.55 807.11-3.9 808.46-3.9L808.46-3.9Q810.21-3.9 811.71-4.48 813.21-5.05 813.21-6.05L813.21-6.05Q813.21-6.5 812.99-6.78 812.76-7.05 812.36-7.35L812.36-7.35Q811.66-7.85 810.26-8.18 808.86-8.5 808.46-8.6L808.46-8.6Q806.41-9.05 804.46-9.95L804.46-9.95Q802.51-10.9 801.36-12.2 800.21-13.5 800.21-15.55L800.21-15.55Q800.21-16.9 801.21-18.38 802.21-19.85 803.46-20.45L803.46-20.45Q804.36-20.8 806.49-21.2 808.61-21.6 809.36-21.6L809.36-21.6Q810.51-21.6 811.86-21.38 813.21-21.15 813.91-20.65L813.91-20.65Q815.26-19.85 816.11-18.98 816.96-18.1 816.96-17L816.96-17Q816.96-16.45 816.71-15.83 816.46-15.2 816.11-15.05L816.11-15.05Q815.36-14.7 814.36-14.7L814.36-14.7Q813.91-14.7 813.64-14.95 813.36-15.2 812.91-15.75L812.91-15.75Q812.36-16.6 811.86-16.75L811.86-16.75Q811.26-16.9 810.11-17.13 808.96-17.35 808.56-17.35L808.56-17.35Q807.41-17.35 806.19-16.7 804.96-16.05 804.96-15.2L804.96-15.2Q804.96-14.75 805.34-14.5 805.71-14.25 806.14-14.05 806.56-13.85 806.71-13.8L806.71-13.8Q807.76-13.3 809.04-12.95 810.31-12.6 810.61-12.5L810.61-12.5Q813.31-11.85 814.21-11.25L814.21-11.25ZM825.01-32.1Q826.76-31.95 828.06-31.18 829.36-30.4 829.36-28.85L829.36-28.85Q829.36-27.7 828.28-27.03 827.21-26.35 825.71-26.35L825.71-26.35Q824.26-26.35 823.71-27.1 823.16-27.85 823.16-28.65L823.16-28.65Q823.16-30.15 823.48-31.15 823.81-32.15 825.01-32.1L825.01-32.1ZM829.01-18.95L829.01-9.95 829.01-8.5Q829.01-6.55 829.13-4.83 829.26-3.1 829.46-1.35L829.46-1.35Q829.41-0.85 828.71-0.33 828.01 0.2 827.46 0.2L827.46 0.2Q826.51 0.2 825.53-0.18 824.56-0.55 824.36-1.1L824.36-1.1Q824.06-2.7 824.06-3.95L824.06-3.95Q824.06-8.05 823.81-13.15L823.81-13.15Q823.61-17.65 823.61-19.45L823.61-19.45Q823.61-20.35 824.51-21 825.41-21.65 826.41-21.65L826.41-21.65Q827.86-21.65 828.43-21 829.01-20.35 829.01-18.95L829.01-18.95ZM855.06-16.05Q855.46-15.35 855.71-14.03 855.96-12.7 855.96-11.65L855.96-11.65Q855.96-9.7 855.11-6.1L855.11-6.1Q851.66 0.2 844.91 0.2L844.91 0.2Q842.41 0.2 839.81-1.45 837.21-3.1 836.21-5.25L836.21-5.25Q834.86-9.55 834.86-10.7L834.86-10.7Q834.86-12.7 835.73-14.95 836.61-17.2 837.96-18.85L837.96-18.85Q838.81-20 841.01-20.83 843.21-21.65 845.01-21.65L845.01-21.65Q848.51-21.65 850.96-20.33 853.41-19 855.06-16.05L855.06-16.05ZM850.71-8Q850.96-8.65 850.96-11.35L850.96-11.35Q850.96-12.8 850.43-14.2 849.91-15.6 848.91-16.6L848.91-16.6Q848.81-16.7 848.36-16.93 847.91-17.15 847.13-17.38 846.36-17.6 845.36-17.6L845.36-17.6Q842.56-17.6 841.26-15.35 839.96-13.1 839.96-10.25L839.96-10.25Q839.96-9.75 840.23-8.35 840.51-6.95 840.71-6.6L840.71-6.6Q840.86-6.25 841.48-5.63 842.11-5 843.03-4.53 843.96-4.05 844.96-4.05L844.96-4.05Q847.21-4.05 848.56-5.13 849.91-6.2 850.71-8L850.71-8ZM883.65-3.85Q883.9-3.75 884.45-3.6 885-3.45 885.25-3.3 885.5-3.15 885.5-2.85L885.5-2.85Q885.55-1.65 884.63-0.88 883.7-0.1 882.45-0.1L882.45-0.1Q880.5-0.1 879.4-1.15 878.3-2.2 877.8-4.35L877.8-4.35Q877.6-5.2 877.6-6.7L877.6-6.7Q877.6-7.55 877.7-9.45L877.7-9.45Q877.8-11.45 877.8-12.65L877.8-12.65Q877.8-14.4 876.83-15.73 875.85-17.05 874.1-17.05L874.1-17.05Q873.05-17.05 871.9-16.43 870.75-15.8 870.3-14.9L870.3-14.9Q869.55-13.45 869.25-11.75L869.25-11.75Q868.7-8.75 868.7-5.5L868.7-5.5Q868.7-3.95 868.75-3.1L868.75-3.1Q868.75-2.9 868.78-2.33 868.8-1.75 868.68-1.28 868.55-0.8 868.25-0.4L868.25-0.4Q868-0.15 867.48 0.03 866.95 0.2 866.5 0.2L866.5 0.2Q865.8 0.2 864.75-0.4 863.7-1 863.55-1.75L863.55-1.75 863.5-2.6Q863.5-3.05 863.6-3.65L863.6-3.65Q864.2-7.15 864.2-9.75L864.2-9.75Q864.2-10.9 864.15-11.55L864.15-11.55 864.1-13.9Q864.1-15.1 863.5-16.23 862.9-17.35 862.1-17.35L862.1-17.35Q861.85-17.35 861.4-17.18 860.95-17 860.65-17L860.65-17Q860.15-17 859.58-17.5 859-18 859-18.55L859-18.55Q859-19.6 859.7-20.25L859.7-20.25Q860.45-20.85 861.18-21.2 861.9-21.55 862.85-21.55L862.85-21.55Q863.65-21.55 864.15-21.4 864.65-21.25 865.5-20.75L865.5-20.75Q865.95-20.5 866.55-19.65 867.15-18.8 867.55-17.25L867.55-17.25Q868.85-19.65 870.78-20.63 872.7-21.6 875.7-21.6L875.7-21.6Q876.85-21.6 878.18-20.85 879.5-20.1 880.45-19.1L880.45-19.1Q881.35-18 881.95-16.38 882.55-14.75 882.55-13.45L882.55-13.45Q882.55-12.7 882.45-11L882.45-11Q882.3-9.65 882.3-8.15L882.3-8.15Q882.3-4.65 883.65-3.85L883.65-3.85ZM903.1-11.25Q903.5-11 904.68-10.33 905.85-9.65 906.25-8.75 906.65-7.85 906.65-6.25L906.65-6.25Q906.65-4.45 905.6-3.08 904.55-1.7 902.9-0.95L902.9-0.95Q901.7-0.4 899.98-0.1 898.25 0.2 897.25 0.2L897.25 0.2Q896.25 0.2 894.68-0.1 893.1-0.4 892.5-0.65L892.5-0.65Q890.95-1.55 889.83-2.85 888.7-4.15 888.7-5.5L888.7-5.5Q888.7-6.5 889.35-7.08 890-7.65 891.05-7.65L891.05-7.65Q891.55-7.65 892.1-7.28 892.65-6.9 892.85-6.5L892.85-6.5Q893.4-5.2 894.7-4.55 896-3.9 897.35-3.9L897.35-3.9Q899.1-3.9 900.6-4.48 902.1-5.05 902.1-6.05L902.1-6.05Q902.1-6.5 901.88-6.78 901.65-7.05 901.25-7.35L901.25-7.35Q900.55-7.85 899.15-8.18 897.75-8.5 897.35-8.6L897.35-8.6Q895.3-9.05 893.35-9.95L893.35-9.95Q891.4-10.9 890.25-12.2 889.1-13.5 889.1-15.55L889.1-15.55Q889.1-16.9 890.1-18.38 891.1-19.85 892.35-20.45L892.35-20.45Q893.25-20.8 895.38-21.2 897.5-21.6 898.25-21.6L898.25-21.6Q899.4-21.6 900.75-21.38 902.1-21.15 902.8-20.65L902.8-20.65Q904.15-19.85 905-18.98 905.85-18.1 905.85-17L905.85-17Q905.85-16.45 905.6-15.83 905.35-15.2 905-15.05L905-15.05Q904.25-14.7 903.25-14.7L903.25-14.7Q902.8-14.7 902.53-14.95 902.25-15.2 901.8-15.75L901.8-15.75Q901.25-16.6 900.75-16.75L900.75-16.75Q900.15-16.9 899-17.13 897.85-17.35 897.45-17.35L897.45-17.35Q896.3-17.35 895.08-16.7 893.85-16.05 893.85-15.2L893.85-15.2Q893.85-14.75 894.23-14.5 894.6-14.25 895.03-14.05 895.45-13.85 895.6-13.8L895.6-13.8Q896.65-13.3 897.93-12.95 899.2-12.6 899.5-12.5L899.5-12.5Q902.2-11.85 903.1-11.25L903.1-11.25Z" opacity="1" transform="matrix(1,0,0,1,0,0)" fill="#ffffff" class="undefined-text-1" data-fill-palette-color="secondary" id="text-1"></path></svg></g></svg></g></svg></g></svg></g><g transform="matrix(1,0,0,1,105.5080941724256,0)"><svg viewBox="0 0 186.48141165514872 136.12895424913697" height="136.12895424913697" width="186.48141165514872"><g><svg xmlns="http://www.w3.org/2000/svg" xmlns:xlink="http://www.w3.org/1999/xlink" version="1.1" x="0" y="0" viewBox="56.612220764160156 111.59199523925781 381.3877868652344 278.40802001953125" enable-background="new 0 0 512 512" xml:space="preserve" height="136.12895424913697" width="186.48141165514872" class="icon-icon-0" data-fill-palette-color="accent" id="icon-0"><g fill="#fefee2" data-fill-palette-color="accent"><g fill="#fefee2" data-fill-palette-color="accent"><path d="M134.843 119.617l-6.799-5.501c-2.071-1.675-4.288-2.524-6.589-2.524-2.059 0-5.077 0.697-7.776 4.017l-23.403 28.388-11.262-9.081c-2.061-1.669-4.279-2.521-6.582-2.521-2.064 0-5.093 0.702-7.796 4.044l-5.498 6.79c-2.393 2.957-2.667 5.73-2.477 7.535 0.19 1.807 1.038 4.462 3.995 6.853l25.693 20.795c2.072 1.677 4.29 2.526 6.591 2.526 2.059 0 5.074-0.697 7.77-4.013l35.597-42.865c0.017-0.021 0.034-0.041 0.051-0.062C140.199 129.245 139.59 123.466 134.843 119.617zM131.691 130.227l-35.62 42.893c-0.979 1.212-2.023 1.818-3.13 1.818-0.896 0-1.835-0.396-2.816-1.19L64.429 152.95c-2.191-1.771-2.4-3.754-0.627-5.946l5.5-6.792c0.979-1.211 2.023-1.817 3.131-1.817 0.896 0 1.835 0.397 2.815 1.191l15.883 12.806 27.192-32.984c0.98-1.21 2.024-1.815 3.132-1.815 0.896 0 1.834 0.396 2.815 1.189l6.795 5.497C133.253 126.053 133.462 128.035 131.691 130.227z" fill="#ffffff" data-fill-palette-color="accent"></path><path d="M60.657 232.005l25.694 20.794c2.07 1.677 4.289 2.528 6.591 2.528 2.059 0 5.075-0.698 7.769-4.015l35.596-42.865c0.018-0.021 0.035-0.041 0.052-0.062 3.838-4.752 3.229-10.529-1.515-14.378l-6.8-5.502c-2.071-1.675-4.287-2.524-6.587-2.524h0c-2.059 0-5.078 0.698-7.777 4.018l-23.402 28.387-11.263-9.081c-2.063-1.669-4.28-2.52-6.582-2.52-2.065 0-5.095 0.702-7.797 4.047l-5.496 6.785c-2.393 2.96-2.668 5.731-2.478 7.537S57.7 229.614 60.657 232.005zM63.802 221.393l5.5-6.79c0.979-1.212 2.023-1.818 3.131-1.818 0.896 0 1.835 0.397 2.815 1.19l15.883 12.807 27.192-32.984c0.98-1.21 2.024-1.816 3.133-1.816 0.896 0 1.833 0.396 2.813 1.188l6.795 5.498c2.189 1.775 2.398 3.755 0.627 5.947l-35.62 42.894c-0.979 1.213-2.022 1.819-3.129 1.819-0.897 0-1.836-0.397-2.817-1.192l-25.696-20.796C62.237 225.567 62.028 223.586 63.802 221.393z" fill="#ffffff" data-fill-palette-color="accent"></path><path d="M134.844 273.553l-6.8-5.502c-2.072-1.676-4.289-2.525-6.589-2.525h0c-2.06 0-5.078 0.698-7.775 4.018l-23.403 28.386-11.263-9.079c-2.061-1.67-4.278-2.521-6.581-2.521-2.064 0-5.093 0.702-7.796 4.044l-5.498 6.79c-2.393 2.958-2.667 5.729-2.477 7.535 0.19 1.807 1.038 4.462 3.995 6.853l25.694 20.793c2.071 1.677 4.289 2.527 6.591 2.527 2.058 0 5.074-0.697 7.769-4.013l35.597-42.866c0.017-0.021 0.034-0.041 0.051-0.062C140.198 283.18 139.589 277.401 134.844 273.553zM131.691 284.159l-35.62 42.894c-0.979 1.212-2.022 1.818-3.13 1.818-0.897 0-1.835-0.397-2.816-1.191l-25.696-20.795c-2.191-1.771-2.4-3.754-0.627-5.946l5.5-6.792c0.979-1.211 2.023-1.817 3.131-1.817 0.896 0 1.835 0.397 2.815 1.191l15.883 12.804 27.192-32.982c0.979-1.211 2.023-1.816 3.131-1.816 0.897 0 1.835 0.396 2.816 1.189l6.795 5.498C133.253 279.988 133.462 281.968 131.691 284.159z" fill="#ffffff" data-fill-palette-color="accent"></path><path d="M170.176 169h234.648c2.307 0 4.176-2.756 4.176-5.86v-41.278c0-3.105-1.869-5.861-4.176-5.861H170.176c-2.306 0-4.176 2.756-4.176 5.861v41.278C166 166.244 167.87 169 170.176 169zM178 128h219v29H178V128z" fill="#ffffff" data-fill-palette-color="accent"></path><path d="M173.143 244h203.149c4.72 0 4.708-6.728 4.708-9.955v-35.469c0-3.227 0.516-9.576-5.183-9.576H173.143c-0.13 0-0.271 0-0.42 0-2.324 0-6.723 0.637-6.723 9.209v35.836C166 237.272 167.16 244 173.143 244zM178 201h191v31H178V201z" fill="#ffffff" data-fill-palette-color="accent"></path><path d="M173.143 314h203.149c4.72 0 4.708-5.691 4.708-8.604v-32.016c0-2.914 0.516-8.381-5.183-8.381H173.143c-0.13 0-0.27 0-0.419 0-2.324 0-6.724 0.311-6.724 8.049v32.348C166 308.309 167.16 314 173.143 314zM177 276h193v27H177V276z" fill="#ffffff" data-fill-palette-color="accent"></path><path d="M433.824 336H170.176c-2.306 0-4.176 2.756-4.176 5.938v42.298c0 3.184 1.87 5.764 4.176 5.764h263.648c2.307 0 4.176-2.58 4.176-5.764v-42.298C438 338.756 436.131 336 433.824 336zM426 378H178v-30h248V378z" fill="#ffffff" data-fill-palette-color="accent"></path></g></g></svg></g></svg></g><g></g></svg></g><defs></defs></svg><rect width="358.7445604622336" height="247.2" fill="none" stroke="none" visibility="hidden"></rect></g></svg></g></svg>